<svg version="1.2" xmlns="http://www.w3.org/2000/svg" viewBox="0 0 200 200" width="200" height="200">
	<style>
		.s0 { fill: #FFFFFF } 
	</style>
	<g id="Layer 2">
		<path id="&lt;Path&gt;" class="s0" d="m35.95 113.55c-6.09 0.31-13.04-0.73-18.6-3.18-12.06-5.31-10.13-19.5-6.05-29.72 2.36-5.91 6.13-11.4 10.4-16.09 2.04-2.23 4.25-4.85 6.86-6.43 3.06-1.84 6.84-1.59 10.16-2.72 2.82-0.96 5.69-2.1 8.1-3.9 4.49-3.36 5.78-8.36 6.28-13.7 0.77-8.05 0.62-26.55 13.59-24.02 4.59 0.9 6.73 3.49 7.11 8.14 0.49 5.89-3.87 12.17-7.11 16.69-3.31 4.63-1.33 6.32 0.76 0.88 1.94-5.08 6.13-12.3 10.8-15.66 3.21-2.29 7.21-1.39 9.29 1.94 2.81 4.51 0.46 10.17-1.83 14.34-3.05 5.52-20.94 25-10.56 30.51 8.65 4.6 21.14-4.26 30.28-4.15 7.88 0.1 15.82 2.65 23.22 5.17 10.12 3.44 20.29 7.71 28.99 14.01 13.75 9.93 17.42 23.21 18.05 39.35q0.14 3.93 0.29 7.86c3.7-0.87 9.74-5.24 13.43-3.05 5.87 3.49-1.97 14.7-5.05 17.48-3.91 3.52-7.95 3.88-12.88 4.42-5.98 0.66-10.6 4.74-14.06 9.45-2.63 3.6-3.52 4.92-7.71 6.54-4.41 1.7-8.29 3.25-13.03 3.58-6.73 0.45-13.32 1.89-19.95 3.03-4.28 0.73-9.93 1.19-12.99-2.63-2.57-3.21-1.06-6.83 2.02-8.97 2.81-1.95 6.74-4.09 10.21-4.28-4.29-1.79-9.47-1.72-13.99-2.81-3.69-0.89-12.03-5.9-14.15-1.73-2.01 3.94-2.8 8.54-6.44 11.54-3.46 2.86-9.22 0.54-11.82-2.42-1.92 6.96-13.86 10.62-20.31 8.75-10.25-2.96 3.46-11.49 6.17-14.49 4.01-4.41 3.32-8.92-1.16-12.67-4.38-3.68-8.14-7.1-11.7-11.69-3.78-4.9-9.5-12.93-6.61-19.38z"/>
	</g>
</svg>